<svg xmlns="http://www.w3.org/2000/svg" xml:space="preserve" width="424" height="424" viewBox="0 0 424 424">
  <path fill="#FFF" d="M24 24h376v376H24z"/>
  <path fill="none" stroke="#aaaaaa" stroke-linecap="round" stroke-linejoin="round" stroke-miterlimit="10" stroke-width="24" d="M12 372v40h400v-40M12 52V12h400v40"/>
  <path fill="#aaaaaa" fill-rule="evenodd" d="m188.9 249.9-28.3 10L68 292.7c-5.3 1.9-9.5-1.1-9.5-6.8v-16.3a7.4 7.4 0 0 1 3.6-6.9l125.7-85.3c.7-.5 1.2-1.9 1.2-3v-65.1c0-13.2.5-26.3 3.8-39.2a39 39 0 0 1 6.6-15c7.8-10 19.3-9.4 26.1 1.3a53 53 0 0 1 7.6 24.4c1 10.8 1.6 21.7 1.7 32.6.3 20.4.1 40.9 0 61.3 0 1.5.5 2.3 1.8 3.2 31.5 21.3 114.5 77.7 124.6 84.4 2.9 1.9 4.4 4.3 4.3 7.8-.2 5.2 0 10.4 0 15.6 0 6-4.1 9-9.7 6.9a76099 76099 0 0 0-121.3-42.9c.2 2.4.5 47.6.5 68.1 0 1.7.6 2.6 2.1 3.5 13.8 7.8 27.5 15.7 41.3 23.4a8.4 8.4 0 0 1 4.7 8.3c-.2 5 0 10.1-.1 15.1 0 6.1-3.7 9-9.6 7.3l-59.1-16.9c-1.3-.4-3-.4-4.3 0l-59.1 16.9c-5.8 1.7-9.4-1-9.5-7l-.1-16.6c0-2.8 1-4.9 3.4-6.3 10.8-6.3 39.6-22.6 43-24.7.7-.4 1.5-1.5 1.5-2.3-.2-22.3-.2-67.8-.3-68.6z" clip-rule="evenodd"/>
</svg>
