<svg xmlns="http://www.w3.org/2000/svg" xml:space="preserve" width="398.4" height="250" viewBox="0 0 398.4 250">
  <path d="M0 0h92.3c20.8 0 36.7 1.6 47.6 4.8a83.7 83.7 0 0 1 37.7 23c10.5 11 18.4 24.5 23.9 40.5s8.2 35.7 8.2 59.1c0 20.6-2.6 38.3-7.7 53.2a111.1 111.1 0 0 1-26.8 44.2 89.8 89.8 0 0 1-35.5 20c-11.1 3.5-26 5.3-44.7 5.3H0V0zm50.5 42.3v165.6h37.7c14.1 0 24.3-.8 30.5-2.4a46 46 0 0 0 20.4-10.4 52.8 52.8 0 0 0 13.2-24.1c3.4-11.2 5.1-26.5 5.1-45.8 0-19.3-1.7-34.2-5.1-44.5A57.7 57.7 0 0 0 138 56.5a48.2 48.2 0 0 0-23.4-11.8c-7.1-1.6-20.9-2.4-41.4-2.4H50.5zM347.9 250V0h50.5v250h-50.5z"/>
</svg>
