<svg xmlns="http://www.w3.org/2000/svg" xml:space="preserve" width="472.3" height="250" viewBox="0 0 472.3 250">
  <path d="m0 167.1 47.5-4.6c2.9 15.9 8.7 27.6 17.4 35.1a52.3 52.3 0 0 0 35.3 11.2c15.7 0 27.5-3.3 35.5-10 8-6.6 11.9-14.4 11.9-23.3 0-5.7-1.7-10.6-5-14.6-3.4-4-9.2-7.5-17.6-10.5-5.7-2-18.7-5.5-39.1-10.5-26.1-6.5-44.5-14.4-55-23.9a63.3 63.3 0 0 1-11.7-83.1c7-10.7 17-18.9 30.2-24.5C62.5 2.8 78.3 0 96.9 0c30.3 0 53.1 6.6 68.5 19.9a70.1 70.1 0 0 1 24.1 53.2l-48.8 2.1c-2.1-12.4-6.6-21.3-13.4-26.8a49.5 49.5 0 0 0-30.9-8.2 55.8 55.8 0 0 0-33.3 8.7 17.4 17.4 0 0 0-7.7 15c0 5.7 2.4 10.6 7.3 14.7 6.2 5.2 21.1 10.5 44.8 16.2a237.3 237.3 0 0 1 52.7 17.4 67.6 67.6 0 0 1 26.7 24.6 72.1 72.1 0 0 1 9.6 38.5 71.2 71.2 0 0 1-44.1 65.8 136.7 136.7 0 0 1-52.6 8.8c-30.5 0-54-7.1-70.4-21.2C13 214.7 3.2 194.1 0 167.1zM329.8 245.7V4.1h48.8v241.6h-48.8zM423.5 245.7V4.1h48.8v241.6h-48.8z"/>
</svg>
