<svg xmlns="http://www.w3.org/2000/svg" xml:space="preserve" width="350" height="400" viewBox="0 0 350 400">
  <path fill-rule="evenodd" d="m148.7 243.2-32.2 11.4A44380 44380 0 0 1 10.9 292C4.8 294.2 0 290.8 0 284.3c0-6.2.1-12.4 0-18.6-.1-3.5 1.3-6 4.1-7.9 20.8-14.1 116.4-78.9 143.3-97.3.8-.6 1.3-2.2 1.3-3.4V82.9c0-15 .5-30 4.3-44.7a46 46 0 0 1 7.5-17.1c8.9-11.4 22-10.7 29.8 1.5 5.4 8.5 7.8 18 8.7 27.8 1.1 12.3 1.8 24.7 1.9 37.1.3 23.3.1 46.6 0 69.9 0 1.7.6 2.7 2 3.6 35.9 24.3 130.5 88.6 142 96.2 3.3 2.2 5 4.8 4.8 8.9-.2 5.9 0 11.9 0 17.8 0 6.9-4.6 10.2-11.1 7.9-44.7-15.8-136.2-48.3-138.3-48.9.2 2.8.6 54.3.5 77.6 0 2 .6 3 2.3 4 15.7 8.9 31.3 17.9 47.1 26.7 3.8 2.1 5.5 5 5.3 9.4-.2 5.7 0 11.5-.1 17.3 0 7-4.3 10.2-10.9 8.3-22.4-6.4-44.9-12.9-67.4-19.2-1.5-.4-3.4-.4-4.9 0l-67.3 19.3c-6.6 1.9-10.7-1.1-10.8-8l-.2-18.9c0-3.1 1.1-5.6 3.9-7.2l49-28.1c.8-.5 1.7-1.7 1.7-2.6.3-25.5.3-77.4.2-78.3z" clip-rule="evenodd"/>
</svg>
