<svg xmlns="http://www.w3.org/2000/svg" xml:space="preserve" width="312" height="312" viewBox="0 0 312 312">
  <circle cx="156" cy="156" r="150" fill="none" stroke="#000" stroke-miterlimit="10" stroke-width="12"/>
  <path d="m174.7 123.5 44.5-77-.1-.1a126.6 126.6 0 0 0-126.3 0l44.5 77.1a37 37 0 0 1 37.4 0zM193.5 156c0 13.9-7.6 26-18.8 32.5l44.5 77 .1-.1A126.2 126.2 0 0 0 282.5 156h-89zM118.5 156H29.6v.1c0 46.7 25.4 87.5 63.1 109.4l44.5-77.1a37.4 37.4 0 0 1-18.7-32.4zM156 131a25 25 0 1 0 0 50 25 25 0 0 0 0-50z"/>
</svg>
