<svg xmlns="http://www.w3.org/2000/svg" xml:space="preserve" width="212" height="212" viewBox="0 0 212 212">
  <path fill="none" stroke="#000" stroke-linecap="round" stroke-linejoin="round" stroke-miterlimit="10" stroke-width="12" d="M206 6v50a50 50 0 0 1-100 0A50 50 0 0 0 6 56v50M106 56v150M56 206h100"/>
  <path d="M6 189.6v-64.4h20.9c7.9 0 13.1.3 15.5 1 3.7 1 6.8 3.1 9.3 6.3 2.5 3.2 3.7 7.4 3.7 12.5 0 4-.7 7.3-2.2 10a17 17 0 0 1-5.5 6.3 20.2 20.2 0 0 1-6.7 3.1 76 76 0 0 1-13.5.9H19v24.3H6zm13-53.5v18.3h7.1a33 33 0 0 0 10.3-1 8.7 8.7 0 0 0 5.6-8.2c0-2.3-.7-4.3-2.1-5.8a9.3 9.3 0 0 0-5.2-2.9c-1.6-.3-4.7-.4-9.4-.4H19zM143.5 156.7c0-6.6 1-12.1 2.9-16.5 1.5-3.3 3.5-6.2 6-8.8 2.5-2.6 5.3-4.5 8.3-5.8 4-1.7 8.6-2.5 13.9-2.5 9.5 0 17.1 2.9 22.8 8.8a34 34 0 0 1 8.5 24.6c0 10.4-2.8 18.5-8.5 24.4a30 30 0 0 1-22.7 8.8c-9.6 0-17.2-2.9-22.9-8.8a34 34 0 0 1-8.3-24.2zm13.4-.4c0 7.3 1.7 12.8 5.1 16.6 3.4 3.8 7.6 5.6 12.8 5.6s9.4-1.9 12.8-5.6c3.3-3.7 5-9.3 5-16.8 0-7.4-1.6-12.9-4.9-16.5-3.2-3.6-7.5-5.4-12.9-5.4s-9.7 1.8-13 5.5c-3.2 3.6-4.9 9.2-4.9 16.6z"/>
</svg>
